<?xml version="1.0" standalone="no"?>
<!DOCTYPE svg PUBLIC "-//W3C//DTD SVG 20010904//EN"
 "http://www.w3.org/TR/2001/REC-SVG-20010904/DTD/svg10.dtd">
<svg version="1.0"
        xmlns="http://www.w3.org/2000/svg" width="1748.000000pt" height="985.000000pt" viewBox="0 0 1748.000000 985.000000" preserveAspectRatio="xMidYMid meet">
        <metadata>
Created by potrace 1.16, written by Peter Selinger 2001-2019
        </metadata>
        <g transform="translate(0.000000,985.000000) scale(0.100000,-0.100000)" fill="#000000" stroke="none">
                <path d="M180 4950 l0 -4710 8550 0 8550 0 0 4710 0 4710 -8550 0 -8550 0 0
-4710z m17080 0 l0 -4690 -8530 0 -8530 0 0 4690 0 4690 8530 0 8530 0 0
-4690z"/>
                <path d="M220 4950 l0 -4670 8510 0 8510 0 0 4670 0 4670 -8510 0 -8510 0 0
-4670z m17000 0 l0 -4650 -8490 0 -8490 0 0 4650 0 4650 8490 0 8490 0 0
-4650z"/>
                <path d="M3690 7550 l0 -1300 45 0 45 0 0 -145 0 -145 750 0 750 0 0 260 0
260 120 0 120 0 0 290 0 290 -75 0 -75 0 0 115 0 115 -45 0 -45 0 0 115 0 115
120 0 120 0 0 290 0 290 -75 0 -75 0 0 115 0 115 -45 0 -45 0 0 145 0 145 -75
0 -75 0 0 115 0 115 -720 0 -720 0 0 -1300z m1570 915 c0 -83 -4 -135 -10
-135 -6 0 -10 48 -10 125 l0 125 -55 0 c-30 0 -55 5 -55 10 0 6 28 10 65 10
l65 0 0 -135z m-40 -20 l0 -115 -45 0 -45 0 0 115 0 115 45 0 45 0 0 -115z
m-330 -230 l0 -115 -315 0 -315 0 0 -145 0 -145 -45 0 -45 0 0 260 0 260 360
0 360 0 0 -115z m0 -145 c0 -6 -105 -10 -295 -10 l-295 0 0 -125 c0 -77 -4
-125 -10 -125 -6 0 -10 52 -10 135 l0 135 305 0 c197 0 305 -4 305 -10z m610
-260 l0 -270 -120 0 -120 0 0 -125 c0 -77 -4 -125 -10 -125 -6 0 -10 52 -10
135 l0 135 120 0 120 0 0 250 0 250 -55 0 c-30 0 -55 5 -55 10 0 6 28 10 65
10 l65 0 0 -270z m-610 115 l0 -115 -285 0 -285 0 0 115 0 115 285 0 285 0 0
-115z m570 -115 l0 -230 -120 0 -120 0 0 -145 0 -145 -45 0 -45 0 0 260 0 260
120 0 120 0 0 115 0 115 45 0 45 0 0 -230z m-570 -635 l0 -115 -315 0 -315 0
0 -145 0 -145 -45 0 -45 0 0 260 0 260 360 0 360 0 0 -115z m0 -145 c0 -6
-105 -10 -295 -10 l-295 0 0 -125 c0 -77 -4 -125 -10 -125 -6 0 -10 52 -10
135 l0 135 305 0 c197 0 305 -4 305 -10z m610 -260 l0 -270 -120 0 -120 0 0
-260 0 -260 -730 0 -730 0 0 135 c0 83 4 135 10 135 6 0 10 -48 10 -125 l0
-125 710 0 710 0 0 260 0 260 120 0 120 0 0 250 0 250 -55 0 c-30 0 -55 5 -55
10 0 6 28 10 65 10 l65 0 0 -270z m-610 115 l0 -115 -285 0 -285 0 0 115 0
115 285 0 285 0 0 -115z m570 -115 l0 -230 -120 0 -120 0 0 -260 0 -260 -690
0 -690 0 0 115 0 115 645 0 645 0 0 260 0 260 120 0 120 0 0 115 0 115 45 0
45 0 0 -230z"/>
                <path d="M5850 8590 l0 -260 -120 0 -120 0 0 -780 0 -780 45 0 45 0 0 -145 0
-145 75 0 75 0 0 -115 0 -115 45 0 45 0 0 -145 0 -145 750 0 750 0 0 260 0
260 120 0 120 0 0 810 0 810 -75 0 -75 0 0 115 0 115 -45 0 -45 0 0 145 0 145
-75 0 -75 0 0 115 0 115 -720 0 -720 0 0 -260z m1570 -125 c0 -83 -4 -135 -10
-135 -6 0 -10 48 -10 125 l0 125 -55 0 c-30 0 -55 5 -55 10 0 6 28 10 65 10
l65 0 0 -135z m-40 -20 l0 -115 -45 0 -45 0 0 115 0 115 45 0 45 0 0 -115z
m-330 -230 l0 -115 -435 0 -435 0 0 -665 0 -665 -45 0 -45 0 0 780 0 780 480
0 480 0 0 -115z m0 -145 c0 -7 -145 -10 -415 -10 l-415 0 0 -645 c0 -423 -3
-645 -10 -645 -7 0 -10 225 -10 655 l0 655 425 0 c277 0 425 -3 425 -10z m610
-780 l0 -790 -120 0 -120 0 0 -260 0 -260 -730 0 -730 0 0 135 c0 83 4 135 10
135 6 0 10 -48 10 -125 l0 -125 710 0 710 0 0 260 0 260 120 0 120 0 0 770 0
770 -55 0 c-30 0 -55 5 -55 10 0 6 28 10 65 10 l65 0 0 -790z m-610 115 l0
-635 -405 0 -405 0 0 635 0 635 405 0 405 0 0 -635z m570 -115 l0 -750 -120 0
-120 0 0 -260 0 -260 -690 0 -690 0 0 115 0 115 645 0 645 0 0 260 0 260 120
0 120 0 0 635 0 635 45 0 45 0 0 -750z m-1880 -645 l0 -125 55 0 c30 0 55 -4
55 -10 0 -6 -28 -10 -65 -10 l-65 0 0 135 c0 83 4 135 10 135 6 0 10 -48 10
-125z m110 10 l0 -115 -45 0 -45 0 0 115 0 115 45 0 45 0 0 -115z"/>
                <path d="M8010 8590 l0 -260 -120 0 -120 0 0 -1040 0 -1040 45 0 45 0 0 -145
0 -145 270 0 270 0 0 520 0 520 285 0 285 0 0 -375 0 -375 45 0 45 0 0 -145 0
-145 270 0 270 0 0 1070 0 1070 -75 0 -75 0 0 115 0 115 -45 0 -45 0 0 145 0
145 -75 0 -75 0 0 115 0 115 -600 0 -600 0 0 -260z m1330 -125 c0 -83 -4 -135
-10 -135 -6 0 -10 48 -10 125 l0 125 -55 0 c-30 0 -55 5 -55 10 0 6 28 10 65
10 l65 0 0 -135z m-40 -20 l0 -115 -45 0 -45 0 0 115 0 115 45 0 45 0 0 -115z
m-330 -230 l0 -115 -315 0 -315 0 0 -145 0 -145 -45 0 -45 0 0 260 0 260 360
0 360 0 0 -115z m0 -145 c0 -6 -105 -10 -295 -10 l-295 0 0 -125 c0 -77 -4
-125 -10 -125 -6 0 -10 52 -10 135 l0 135 305 0 c197 0 305 -4 305 -10z m610
-1040 l0 -1050 -250 0 -250 0 0 135 c0 83 4 135 10 135 6 0 10 -48 10 -125 l0
-125 230 0 230 0 0 1030 0 1030 -55 0 c-30 0 -55 5 -55 10 0 6 28 10 65 10
l65 0 0 -1050z m-610 895 l0 -115 -285 0 -285 0 0 115 0 115 285 0 285 0 0
-115z m570 -895 l0 -1010 -210 0 -210 0 0 115 0 115 165 0 165 0 0 895 0 895
45 0 45 0 0 -1010z m-570 145 l0 -115 -315 0 -315 0 0 -520 0 -520 -210 0
-210 0 0 115 0 115 165 0 165 0 0 520 0 520 360 0 360 0 0 -115z m0 -145 c0
-6 -105 -10 -295 -10 l-295 0 0 -520 0 -520 -250 0 -250 0 0 135 c0 83 4 135
10 135 6 0 10 -48 10 -125 l0 -125 230 0 230 0 0 520 0 520 305 0 c197 0 305
-4 305 -10z"/>
                <path d="M9690 7550 l0 -1300 45 0 45 0 0 -145 0 -145 270 0 270 0 0 520 0
520 285 0 285 0 0 -375 0 -375 45 0 45 0 0 -145 0 -145 270 0 270 0 0 550 0
550 -75 0 -75 0 0 115 0 115 -45 0 -45 0 0 115 0 115 120 0 120 0 0 290 0 290
-75 0 -75 0 0 115 0 115 -45 0 -45 0 0 145 0 145 -75 0 -75 0 0 115 0 115
-720 0 -720 0 0 -1300z m1570 915 c0 -83 -4 -135 -10 -135 -6 0 -10 48 -10
125 l0 125 -55 0 c-30 0 -55 5 -55 10 0 6 28 10 65 10 l65 0 0 -135z m-40 -20
l0 -115 -45 0 -45 0 0 115 0 115 45 0 45 0 0 -115z m-330 -230 l0 -115 -315 0
-315 0 0 -145 0 -145 -45 0 -45 0 0 260 0 260 360 0 360 0 0 -115z m0 -145 c0
-6 -105 -10 -295 -10 l-295 0 0 -125 c0 -77 -4 -125 -10 -125 -6 0 -10 52 -10
135 l0 135 305 0 c197 0 305 -4 305 -10z m610 -260 l0 -270 -120 0 -120 0 0
-125 c0 -77 -4 -125 -10 -125 -6 0 -10 52 -10 135 l0 135 120 0 120 0 0 250 0
250 -55 0 c-30 0 -55 5 -55 10 0 6 28 10 65 10 l65 0 0 -270z m-610 115 l0
-115 -285 0 -285 0 0 115 0 115 285 0 285 0 0 -115z m570 -115 l0 -230 -120 0
-120 0 0 -145 0 -145 -45 0 -45 0 0 260 0 260 120 0 120 0 0 115 0 115 45 0
45 0 0 -230z m-570 -635 l0 -115 -315 0 -315 0 0 -520 0 -520 -210 0 -210 0 0
115 0 115 165 0 165 0 0 520 0 520 360 0 360 0 0 -115z m0 -145 c0 -6 -105
-10 -295 -10 l-295 0 0 -520 0 -520 -250 0 -250 0 0 135 c0 83 4 135 10 135 6
0 10 -48 10 -125 l0 -125 230 0 230 0 0 520 0 520 305 0 c197 0 305 -4 305
-10z m610 -520 l0 -530 -250 0 -250 0 0 135 c0 83 4 135 10 135 6 0 10 -48 10
-125 l0 -125 230 0 230 0 0 510 0 510 -55 0 c-30 0 -55 5 -55 10 0 6 28 10 65
10 l65 0 0 -530z m-40 0 l0 -490 -210 0 -210 0 0 115 0 115 165 0 165 0 0 375
0 375 45 0 45 0 0 -490z"/>
                <path d="M11610 7550 l0 -1300 45 0 45 0 0 -145 0 -145 750 0 750 0 0 260 0
260 120 0 120 0 0 810 0 810 -75 0 -75 0 0 115 0 115 -45 0 -45 0 0 145 0 145
-75 0 -75 0 0 115 0 115 -720 0 -720 0 0 -1300z m1570 915 c0 -83 -4 -135 -10
-135 -6 0 -10 48 -10 125 l0 125 -55 0 c-30 0 -55 5 -55 10 0 6 28 10 65 10
l65 0 0 -135z m-40 -20 l0 -115 -45 0 -45 0 0 115 0 115 45 0 45 0 0 -115z
m-330 -230 l0 -115 -315 0 -315 0 0 -665 0 -665 -45 0 -45 0 0 780 0 780 360
0 360 0 0 -115z m0 -145 c0 -6 -105 -10 -295 -10 l-295 0 0 -645 c0 -423 -3
-645 -10 -645 -7 0 -10 225 -10 655 l0 655 305 0 c197 0 305 -4 305 -10z m610
-780 l0 -790 -120 0 -120 0 0 -260 0 -260 -730 0 -730 0 0 135 c0 83 4 135 10
135 6 0 10 -48 10 -125 l0 -125 710 0 710 0 0 260 0 260 120 0 120 0 0 770 0
770 -55 0 c-30 0 -55 5 -55 10 0 6 28 10 65 10 l65 0 0 -790z m-610 115 l0
-635 -285 0 -285 0 0 635 0 635 285 0 285 0 0 -635z m570 -115 l0 -750 -120 0
-120 0 0 -260 0 -260 -690 0 -690 0 0 115 0 115 645 0 645 0 0 260 0 260 120
0 120 0 0 635 0 635 45 0 45 0 0 -750z"/>
                <path d="M1770 3910 l0 -1300 45 0 45 0 0 -145 0 -145 270 0 270 0 0 780 0
780 45 0 45 0 0 -115 0 -115 45 0 45 0 0 -145 0 -145 75 0 75 0 0 -115 0 -115
45 0 45 0 0 -145 0 -145 270 0 270 0 0 260 0 260 120 0 120 0 0 260 0 260 45
0 45 0 0 -635 0 -635 45 0 45 0 0 -145 0 -145 270 0 270 0 0 1330 0 1330 -75
0 -75 0 0 115 0 115 -360 0 -360 0 0 -260 0 -260 -120 0 -120 0 0 -260 0 -260
-165 0 -165 0 0 145 0 145 -75 0 -75 0 0 115 0 115 -45 0 -45 0 0 145 0 145
-75 0 -75 0 0 115 0 115 -360 0 -360 0 0 -1300z m850 915 c0 -83 -4 -135 -10
-135 -6 0 -10 48 -10 125 l0 125 -55 0 c-30 0 -55 5 -55 10 0 6 28 10 65 10
l65 0 0 -135z m1680 -1175 l0 -1310 -250 0 -250 0 0 135 c0 83 4 135 10 135 6
0 10 -48 10 -125 l0 -125 230 0 230 0 0 1290 0 1290 -55 0 c-30 0 -55 5 -55
10 0 6 28 10 65 10 l65 0 0 -1310z m-1720 1155 l0 -115 -45 0 -45 0 0 115 0
115 45 0 45 0 0 -115z m1680 -1155 l0 -1270 -210 0 -210 0 0 115 0 115 165 0
165 0 0 1155 0 1155 45 0 45 0 0 -1270z m-1400 655 c0 -83 -4 -135 -10 -135
-6 0 -10 48 -10 125 l0 125 -55 0 c-30 0 -55 5 -55 10 0 6 28 10 65 10 l65 0
0 -135z m-40 -20 l0 -115 -45 0 -45 0 0 115 0 115 45 0 45 0 0 -115z m-330
-230 l0 -115 -75 0 -75 0 0 -780 0 -780 -210 0 -210 0 0 115 0 115 165 0 165
0 0 780 0 780 120 0 120 0 0 -115z m1200 0 l0 -115 -75 0 -75 0 0 -260 0 -260
-120 0 -120 0 0 -260 0 -260 -210 0 -210 0 0 115 0 115 165 0 165 0 0 260 0
260 120 0 120 0 0 260 0 260 120 0 120 0 0 -115z m-1200 -145 c0 -5 -25 -10
-55 -10 l-55 0 0 -780 0 -780 -250 0 -250 0 0 135 c0 83 4 135 10 135 6 0 10
-48 10 -125 l0 -125 230 0 230 0 0 780 0 780 65 0 c37 0 65 -4 65 -10z m1200
0 c0 -5 -25 -10 -55 -10 l-55 0 0 -260 0 -260 -120 0 -120 0 0 -260 0 -260
-250 0 -250 0 0 135 c0 83 4 135 10 135 6 0 10 -48 10 -125 l0 -125 230 0 230
0 0 260 0 260 120 0 120 0 0 260 0 260 65 0 c37 0 65 -4 65 -10z m-1070 -385
l0 -125 55 0 c30 0 55 -4 55 -10 0 -6 -28 -10 -65 -10 l-65 0 0 135 c0 83 4
135 10 135 6 0 10 -48 10 -125z m110 10 l0 -115 -45 0 -45 0 0 115 0 115 45 0
45 0 0 -115z"/>
                <path d="M4410 3910 l0 -1300 45 0 45 0 0 -145 0 -145 870 0 870 0 0 290 0
290 -75 0 -75 0 0 115 0 115 -525 0 -525 0 0 115 0 115 360 0 360 0 0 290 0
290 -75 0 -75 0 0 115 0 115 -285 0 -285 0 0 115 0 115 600 0 600 0 0 290 0
290 -75 0 -75 0 0 115 0 115 -840 0 -840 0 0 -1300z m1810 780 l0 -270 -600 0
-600 0 0 -125 c0 -77 -4 -125 -10 -125 -6 0 -10 52 -10 135 l0 135 600 0 600
0 0 250 0 250 -55 0 c-30 0 -55 5 -55 10 0 6 28 10 65 10 l65 0 0 -270z m-40
0 l0 -230 -600 0 -600 0 0 -145 0 -145 -45 0 -45 0 0 260 0 260 600 0 600 0 0
115 0 115 45 0 45 0 0 -230z m-440 -1040 l0 -270 -360 0 -360 0 0 -125 c0 -77
-4 -125 -10 -125 -6 0 -10 52 -10 135 l0 135 360 0 360 0 0 250 0 250 -55 0
c-30 0 -55 5 -55 10 0 6 28 10 65 10 l65 0 0 -270z m-40 0 l0 -230 -360 0
-360 0 0 -145 0 -145 -45 0 -45 0 0 260 0 260 360 0 360 0 0 115 0 115 45 0
45 0 0 -230z m520 -1040 l0 -270 -850 0 -850 0 0 135 c0 83 4 135 10 135 6 0
10 -48 10 -125 l0 -125 830 0 830 0 0 250 0 250 -55 0 c-30 0 -55 5 -55 10 0
6 28 10 65 10 l65 0 0 -270z m-40 0 l0 -230 -810 0 -810 0 0 115 0 115 765 0
765 0 0 115 0 115 45 0 45 0 0 -230z"/>
                <path d="M6330 3910 l0 -1300 45 0 45 0 0 -145 0 -145 870 0 870 0 0 290 0
290 -75 0 -75 0 0 115 0 115 -525 0 -525 0 0 115 0 115 360 0 360 0 0 290 0
290 -75 0 -75 0 0 115 0 115 -285 0 -285 0 0 115 0 115 600 0 600 0 0 290 0
290 -75 0 -75 0 0 115 0 115 -840 0 -840 0 0 -1300z m1810 780 l0 -270 -600 0
-600 0 0 -125 c0 -77 -4 -125 -10 -125 -6 0 -10 52 -10 135 l0 135 600 0 600
0 0 250 0 250 -55 0 c-30 0 -55 5 -55 10 0 6 28 10 65 10 l65 0 0 -270z m-40
0 l0 -230 -600 0 -600 0 0 -145 0 -145 -45 0 -45 0 0 260 0 260 600 0 600 0 0
115 0 115 45 0 45 0 0 -230z m-440 -1040 l0 -270 -360 0 -360 0 0 -125 c0 -77
-4 -125 -10 -125 -6 0 -10 52 -10 135 l0 135 360 0 360 0 0 250 0 250 -55 0
c-30 0 -55 5 -55 10 0 6 28 10 65 10 l65 0 0 -270z m-40 0 l0 -230 -360 0
-360 0 0 -145 0 -145 -45 0 -45 0 0 260 0 260 360 0 360 0 0 115 0 115 45 0
45 0 0 -230z m520 -1040 l0 -270 -850 0 -850 0 0 135 c0 83 4 135 10 135 6 0
10 -48 10 -125 l0 -125 830 0 830 0 0 250 0 250 -55 0 c-30 0 -55 5 -55 10 0
6 28 10 65 10 l65 0 0 -270z m-40 0 l0 -230 -810 0 -810 0 0 115 0 115 765 0
765 0 0 115 0 115 45 0 45 0 0 -230z"/>
                <path d="M8250 4950 l0 -260 45 0 45 0 0 -145 0 -145 315 0 315 0 0 -895 0
-895 45 0 45 0 0 -145 0 -145 270 0 270 0 0 1040 0 1040 360 0 360 0 0 290 0
290 -75 0 -75 0 0 115 0 115 -960 0 -960 0 0 -260z m2050 -260 l0 -270 -360 0
-360 0 0 -1040 0 -1040 -250 0 -250 0 0 135 c0 83 4 135 10 135 6 0 10 -48 10
-125 l0 -125 230 0 230 0 0 1040 0 1040 360 0 360 0 0 250 0 250 -55 0 c-30 0
-55 5 -55 10 0 6 28 10 65 10 l65 0 0 -270z m-40 0 l0 -230 -360 0 -360 0 0
-1040 0 -1040 -210 0 -210 0 0 115 0 115 165 0 165 0 0 1040 0 1040 360 0 360
0 0 115 0 115 45 0 45 0 0 -230z m-1880 -125 l0 -125 295 0 c190 0 295 -4 295
-10 0 -6 -108 -10 -305 -10 l-305 0 0 135 c0 83 4 135 10 135 6 0 10 -48 10
-125z m590 10 l0 -115 -285 0 -285 0 0 115 0 115 285 0 285 0 0 -115z"/>
                <path d="M10410 3910 l0 -1300 45 0 45 0 0 -145 0 -145 270 0 270 0 0 1330 0
1330 -75 0 -75 0 0 115 0 115 -240 0 -240 0 0 -1300z m610 -260 l0 -1310 -250
0 -250 0 0 135 c0 83 4 135 10 135 6 0 10 -48 10 -125 l0 -125 230 0 230 0 0
1290 0 1290 -55 0 c-30 0 -55 5 -55 10 0 6 28 10 65 10 l65 0 0 -1310z m-40 0
l0 -1270 -210 0 -210 0 0 115 0 115 165 0 165 0 0 1155 0 1155 45 0 45 0 0
-1270z"/>
                <path d="M11130 3910 l0 -1300 45 0 45 0 0 -145 0 -145 270 0 270 0 0 780 0
780 45 0 45 0 0 -115 0 -115 45 0 45 0 0 -145 0 -145 75 0 75 0 0 -115 0 -115
45 0 45 0 0 -145 0 -145 75 0 75 0 0 -115 0 -115 45 0 45 0 0 -145 0 -145 510
0 510 0 0 1330 0 1330 -75 0 -75 0 0 115 0 115 -240 0 -240 0 0 -1040 0 -1040
-45 0 -45 0 0 145 0 145 -75 0 -75 0 0 115 0 115 -45 0 -45 0 0 145 0 145 -75
0 -75 0 0 115 0 115 -45 0 -45 0 0 145 0 145 -75 0 -75 0 0 115 0 115 -45 0
-45 0 0 145 0 145 -75 0 -75 0 0 115 0 115 -360 0 -360 0 0 -1300z m850 915
c0 -83 -4 -135 -10 -135 -6 0 -10 48 -10 125 l0 125 -55 0 c-30 0 -55 5 -55
10 0 6 28 10 65 10 l65 0 0 -135z m1440 -1175 l0 -1310 -490 0 -490 0 0 135
c0 83 4 135 10 135 6 0 10 -48 10 -125 l0 -125 470 0 470 0 0 1290 0 1290 -55
0 c-30 0 -55 5 -55 10 0 6 28 10 65 10 l65 0 0 -1310z m-1480 1155 l0 -115
-45 0 -45 0 0 115 0 115 45 0 45 0 0 -115z m1440 -1155 l0 -1270 -450 0 -450
0 0 115 0 115 405 0 405 0 0 1155 0 1155 45 0 45 0 0 -1270z m-1160 655 c0
-83 -4 -135 -10 -135 -6 0 -10 48 -10 125 l0 125 -55 0 c-30 0 -55 5 -55 10 0
6 28 10 65 10 l65 0 0 -135z m-40 -20 l0 -115 -45 0 -45 0 0 115 0 115 45 0
45 0 0 -115z m-330 -230 l0 -115 -75 0 -75 0 0 -780 0 -780 -210 0 -210 0 0
115 0 115 165 0 165 0 0 780 0 780 120 0 120 0 0 -115z m0 -145 c0 -5 -25 -10
-55 -10 l-55 0 0 -780 0 -780 -250 0 -250 0 0 135 c0 83 4 135 10 135 6 0 10
-48 10 -125 l0 -125 230 0 230 0 0 780 0 780 65 0 c37 0 65 -4 65 -10z m610
-125 c0 -83 -4 -135 -10 -135 -6 0 -10 48 -10 125 l0 125 -55 0 c-30 0 -55 5
-55 10 0 6 28 10 65 10 l65 0 0 -135z m-40 -20 l0 -115 -45 0 -45 0 0 115 0
115 45 0 45 0 0 -115z m-440 -240 l0 -125 55 0 c30 0 55 -4 55 -10 0 -6 -28
-10 -65 -10 l-65 0 0 135 c0 83 4 135 10 135 6 0 10 -48 10 -125z m110 10 l0
-115 -45 0 -45 0 0 115 0 115 45 0 45 0 0 -115z m610 -270 c0 -83 -4 -135 -10
-135 -6 0 -10 48 -10 125 l0 125 -55 0 c-30 0 -55 5 -55 10 0 6 28 10 65 10
l65 0 0 -135z m-40 -20 l0 -115 -45 0 -45 0 0 115 0 115 45 0 45 0 0 -115z
m-440 -240 l0 -125 55 0 c30 0 55 -4 55 -10 0 -6 -28 -10 -65 -10 l-65 0 0
135 c0 83 4 135 10 135 6 0 10 -48 10 -125z m110 10 l0 -115 -45 0 -45 0 0
115 0 115 45 0 45 0 0 -115z"/>
                <path d="M13770 4950 l0 -260 -120 0 -120 0 0 -780 0 -780 45 0 45 0 0 -145 0
-145 75 0 75 0 0 -115 0 -115 45 0 45 0 0 -145 0 -145 750 0 750 0 0 260 0
260 120 0 120 0 0 550 0 550 -75 0 -75 0 0 115 0 115 -360 0 -360 0 0 -260 0
-260 120 0 120 0 0 -260 0 -260 -405 0 -405 0 0 635 0 635 600 0 600 0 0 290
0 290 -75 0 -75 0 0 115 0 115 -720 0 -720 0 0 -260z m1570 -260 l0 -270 -600
0 -600 0 0 -645 c0 -423 -3 -645 -10 -645 -7 0 -10 225 -10 655 l0 655 600 0
600 0 0 250 0 250 -55 0 c-30 0 -55 5 -55 10 0 6 28 10 65 10 l65 0 0 -270z
m-40 0 l0 -230 -600 0 -600 0 0 -665 0 -665 -45 0 -45 0 0 780 0 780 600 0
600 0 0 115 0 115 45 0 45 0 0 -230z m280 -1300 l0 -530 -120 0 -120 0 0 -260
0 -260 -730 0 -730 0 0 135 c0 83 4 135 10 135 6 0 10 -48 10 -125 l0 -125
710 0 710 0 0 260 0 260 120 0 120 0 0 510 0 510 -55 0 c-30 0 -55 5 -55 10 0
6 28 10 65 10 l65 0 0 -530z m-40 0 l0 -490 -120 0 -120 0 0 -260 0 -260 -690
0 -690 0 0 115 0 115 645 0 645 0 0 260 0 260 120 0 120 0 0 375 0 375 45 0
45 0 0 -490z m-1880 -385 l0 -125 55 0 c30 0 55 -4 55 -10 0 -6 -28 -10 -65
-10 l-65 0 0 135 c0 83 4 135 10 135 6 0 10 -48 10 -125z m110 10 l0 -115 -45
0 -45 0 0 115 0 115 45 0 45 0 0 -115z"/>
                <path d="M8095 1451 c-42 -18 -50 -40 -50 -137 0 -107 13 -130 78 -141 31 -5
40 -1 67 25 25 25 30 39 30 76 l0 46 -45 0 c-33 0 -45 -4 -45 -15 0 -9 9 -15
25 -15 21 0 25 -5 25 -27 0 -35 -9 -48 -37 -57 -40 -13 -63 24 -63 98 0 89 12
116 50 116 19 0 34 -7 42 -20 13 -20 48 -28 48 -11 0 6 -10 21 -22 35 -25 28
-72 40 -103 27z"/>
                <path d="M10505 1453 c-34 -9 -55 -35 -55 -68 0 -43 17 -62 75 -83 44 -16 50
-21 53 -50 3 -27 -1 -34 -22 -42 -32 -12 -76 3 -76 25 0 8 -9 15 -20 15 -26 0
-26 -20 0 -48 55 -59 160 -27 160 48 0 40 -35 75 -88 90 -44 11 -62 40 -42 65
16 20 69 19 76 0 6 -16 44 -21 44 -6 0 33 -61 65 -105 54z"/>
                <path d="M4680 1311 c0 -121 2 -141 16 -141 13 0 15 18 12 135 -2 74 0 135 3
135 3 0 13 -31 23 -70 25 -96 45 -96 72 3 l19 72 3 -137 c2 -114 5 -138 17
-138 13 0 15 23 15 140 l0 140 -29 0 c-27 0 -29 -4 -41 -60 -7 -33 -16 -60
-19 -60 -4 0 -13 26 -21 58 -13 51 -18 57 -42 60 l-28 3 0 -140z"/>
                <path d="M5161 1335 c4 -103 6 -117 27 -137 15 -16 34 -23 62 -23 28 0 47 7
62 23 21 20 23 34 27 137 3 110 2 115 -17 115 -19 0 -20 -7 -24 -111 -3 -96
-6 -113 -22 -125 -24 -17 -28 -17 -52 0 -16 12 -19 29 -22 125 -4 104 -5 111
-24 111 -19 0 -20 -5 -17 -115z"/>
                <path d="M5660 1310 l0 -140 85 0 c78 0 85 2 85 20 0 18 -7 20 -65 20 l-65 0
0 120 c0 113 -1 120 -20 120 -19 0 -20 -7 -20 -140z"/>
                <path d="M6110 1435 c0 -11 11 -15 40 -15 l40 0 0 -125 c0 -118 1 -125 20
-125 19 0 20 7 20 125 l0 125 40 0 c29 0 40 4 40 15 0 12 -18 15 -100 15 -82
0 -100 -3 -100 -15z"/>
                <path d="M6610 1435 c0 -10 10 -15 30 -15 l30 0 0 -105 0 -105 -30 0 c-23 0
-30 -4 -30 -20 0 -18 7 -20 80 -20 73 0 80 2 80 20 0 16 -7 20 -30 20 l-30 0
0 105 0 105 30 0 c20 0 30 5 30 15 0 12 -16 15 -80 15 -64 0 -80 -3 -80 -15z"/>
                <path d="M7590 1323 c-18 -71 -35 -134 -37 -140 -3 -8 3 -13 15 -13 21 0 32
18 32 51 0 16 7 19 50 19 43 0 50 -3 50 -19 0 -33 11 -51 32 -51 15 0 18 5 14
17 -4 9 -21 72 -38 140 -30 120 -31 123 -58 123 -26 0 -28 -3 -60 -127z m73
60 c4 -21 9 -53 13 -70 6 -32 5 -33 -26 -33 -31 0 -32 1 -26 33 4 17 9 49 13
70 3 20 9 37 13 37 4 0 10 -17 13 -37z"/>
                <path d="M8530 1310 l0 -140 80 0 c73 0 80 2 80 20 0 18 -7 20 -60 20 l-60 0
0 45 0 45 55 0 c42 0 55 3 55 15 0 12 -13 15 -55 15 l-55 0 0 45 0 45 60 0
c47 0 60 3 60 15 0 12 -16 15 -80 15 l-80 0 0 -140z"/>
                <path d="M9000 1310 c0 -133 1 -140 20 -140 19 0 20 7 21 123 l1 122 41 -122
c40 -118 43 -123 69 -123 l28 0 0 140 c0 135 -1 140 -21 140 -19 0 -20 -5 -17
-115 2 -63 1 -115 -2 -115 -3 0 -23 52 -43 115 -37 112 -39 115 -68 115 l-29
0 0 -140z"/>
                <path d="M9470 1435 c0 -11 11 -15 40 -15 l40 0 0 -125 c0 -118 1 -125 20
-125 19 0 20 7 20 125 l0 125 40 0 c29 0 40 4 40 15 0 12 -18 15 -100 15 -82
0 -100 -3 -100 -15z"/>
                <path d="M10930 1310 c0 -133 1 -140 20 -140 18 0 20 7 20 65 0 58 2 65 20 65
15 0 27 -17 49 -65 23 -49 35 -65 50 -65 19 0 19 4 -14 76 l-35 75 30 59 c35
70 35 70 12 70 -12 0 -27 -19 -45 -55 -19 -39 -32 -55 -47 -55 -18 0 -20 7
-20 55 0 48 -2 55 -20 55 -19 0 -20 -7 -20 -140z"/>
                <path d="M11410 1435 c0 -10 10 -15 30 -15 l30 0 0 -105 0 -105 -30 0 c-23 0
-30 -4 -30 -20 0 -18 7 -20 80 -20 73 0 80 2 80 20 0 16 -7 20 -30 20 l-30 0
0 105 0 105 30 0 c20 0 30 5 30 15 0 12 -16 15 -80 15 -64 0 -80 -3 -80 -15z"/>
                <path d="M11900 1310 l0 -140 85 0 c78 0 85 2 85 20 0 18 -7 20 -65 20 l-65 0
0 120 c0 113 -1 120 -20 120 -19 0 -20 -7 -20 -140z"/>
                <path d="M12380 1310 l0 -140 85 0 c78 0 85 2 85 20 0 18 -7 20 -65 20 l-65 0
0 120 c0 113 -1 120 -20 120 -19 0 -20 -7 -20 -140z"/>
                <path d="M7110 1300 c0 -18 7 -20 60 -20 53 0 60 2 60 20 0 18 -7 20 -60 20
-53 0 -60 -2 -60 -20z"/>
        </g>
</svg>
